# xmcd CD database file
#
# Track frame offsets:
#	150
#	19002
#	29112
#	45154
#	61727
#	76030
#	88734
#	101338
#	116128
#	127676
#	145462
#	158975
#	172786
#	186597
#	203296
#	219397
#	229660
#	248490
#
# Disc length: 3544 seconds
#
# Revision: 1
# Processed by: cddbd v1.5.2PL0 Copyright (c) Steve Scherf et al.
# Submitted via: CDex 1.51
#
DISCID=dd0dd612
DTITLE=Kéri Kitty - Kalandra fel
DYEAR=2007
DGENRE=Jazz
TTITLE0=Kéri Kitty - Kalandra fel!
TTITLE1=Kéri Kitty - Háp Rap
TTITLE2=Kéri Kitty - Karibi Póló
TTITLE3=Kéri Kitty - Sapka Sára
TTITLE4=Kéri Kitty - Szánkózunk
TTITLE5=Kéri Kitty - Vadnyugat
TTITLE6=Kéri Kitty - Álomország
TTITLE7=Kéri Kitty - A dzsungel mélyén
TTITLE8=Kéri Kitty - Kígyó-bûvölõ
TTITLE9=Kéri Kitty - Mesevonat
TTITLE10=Kéri Kitty - Egyszer volt, hol nem volt
TTITLE11=Kéri Kitty - Ovi-rock
TTITLE12=Kéri Kitty - A jó tündér
TTITLE13=Kéri Kitty - Sóhaj
TTITLE14=Kéri Kitty - A fekete gyöngy regéje
TTITLE15=Kéri Kitty - Bonus-Háp Rap
TTITLE16=Kéri Kitty - Karaoke-Kalandra fel!
TTITLE17=Kéri Kitty - Karaoke-Mesevonat
EXTD=YEAR: 2007
EXTT0=
EXTT1=
EXTT2=
EXTT3=
EXTT4=
EXTT5=
EXTT6=
EXTT7=
EXTT8=
EXTT9=
EXTT10=
EXTT11=
EXTT12=
EXTT13=
EXTT14=
EXTT15=
EXTT16=
EXTT17=
PLAYORDER=
